<svg width="185" height="78" viewBox="0 0 185 78" fill="none" xmlns="http://www.w3.org/2000/svg">
<path d="M143.343 46.0547C111.202 49.3797 114.896 69.3295 113.788 75.61C115.881 77.8267 121.325 79.6739 126.349 69.3295C132.629 56.3991 160.707 55.6602 179.548 46.0547C194.622 38.3704 173.268 12.3124 160.707 0.244019C165.633 14.4059 169.056 43.3948 143.343 46.0547Z" fill="#B29988"/>
<path d="M41.3896 46.0547C73.531 49.3797 69.8366 69.3295 70.9449 75.61C68.8514 77.8267 63.4083 79.6739 58.3839 69.3295C52.1034 56.3991 24.0259 55.6602 5.18435 46.0547C-9.88885 38.3704 11.4649 12.3124 24.0259 0.244019C19.1 14.4059 15.6765 43.3948 41.3896 46.0547Z" fill="#B29988"/>
</svg>
