<svg width="27" height="24" viewBox="0 0 27 24" fill="none" xmlns="http://www.w3.org/2000/svg">
<g filter="url(#filter0_d_1011_78)">
<ellipse cx="13.2484" cy="11.5" rx="11" ry="10.5" fill="#353E5D"/>
</g>
<path d="M2.49676 15.7219C2.49676 20.4539 8.15745 17.2992 12.5602 20.4539L4.38389 12.5672C1.23907 9.93828 2.49676 11.9362 2.49676 15.7219Z" fill="#796558" stroke="#796558"/>
<path d="M7.74845 13.5C6.22767 15.2798 11.2982 19.4644 12.8536 20.6653C13.3747 21.0676 13.5013 21.1351 12.8536 20.6653C12.7693 20.6041 12.6718 20.5338 12.5603 20.4539C8.15753 17.2992 1.24838 18.232 1.24838 13.5C1.24838 9.71437 -0.00930905 7.7164 3.13551 10.3453L7.74845 13.5Z" fill="#B29988"/>
<path d="M7.52879 1C6.27086 3.27839 7.19771 8.36094 15.2485 10.4641C23.2992 12.5672 7.53879 11.9227 7.74845 13.5M7.74845 13.5C5.65189 15.9536 16.0825 22.9777 12.5603 20.4539C8.15753 17.2992 1.24838 18.232 1.24838 13.5C1.24838 9.71437 -0.00930905 7.7164 3.13551 10.3453L7.74845 13.5Z" stroke="#B29988"/>
<path d="M24.2921 15.7219C24.2921 20.4539 18.6314 17.2992 14.2287 20.4539L22.405 12.5672C25.5498 9.93828 24.2921 11.9362 24.2921 15.7219Z" fill="#796558" stroke="#796558"/>
<path d="M19.0404 13.5C20.5612 15.2798 15.4907 19.4644 13.9352 20.6653C13.4142 21.0676 13.2876 21.1351 13.9352 20.6653C14.0196 20.6041 14.1171 20.5338 14.2286 20.4539C18.6313 17.2992 25.5405 18.232 25.5405 13.5C25.5405 9.71437 26.7982 7.7164 23.6533 10.3453L19.0404 13.5Z" fill="#B29988"/>
<path d="M19.2601 1C20.518 3.27839 19.5911 8.36094 11.5404 10.4641C3.48964 12.5672 19.2501 11.9227 19.0404 13.5M19.0404 13.5C21.137 15.9536 10.7064 22.9777 14.2286 20.4539C18.6313 17.2992 25.5405 18.232 25.5405 13.5C25.5405 9.71437 26.7982 7.7164 23.6533 10.3453L19.0404 13.5Z" stroke="#B29988"/>
<defs>
<filter id="filter0_d_1011_78" x="2.24838" y="1" width="24" height="23" filterUnits="userSpaceOnUse" color-interpolation-filters="sRGB">
<feFlood flood-opacity="0" result="BackgroundImageFix"/>
<feColorMatrix in="SourceAlpha" type="matrix" values="0 0 0 0 0 0 0 0 0 0 0 0 0 0 0 0 0 0 127 0" result="hardAlpha"/>
<feOffset dx="1" dy="1"/>
<feGaussianBlur stdDeviation="0.5"/>
<feComposite in2="hardAlpha" operator="out"/>
<feColorMatrix type="matrix" values="0 0 0 0 0 0 0 0 0 0 0 0 0 0 0 0 0 0 0.7 0"/>
<feBlend mode="normal" in2="BackgroundImageFix" result="effect1_dropShadow_1011_78"/>
<feBlend mode="normal" in="SourceGraphic" in2="effect1_dropShadow_1011_78" result="shape"/>
</filter>
</defs>
</svg>
